<svg width="41" height="40" viewBox="0 0 41 40" fill="none" xmlns="http://www.w3.org/2000/svg">
<path d="M40.0812 20C40.0812 9.23045 31.3507 0.5 20.5812 0.5H19.5C8.73048 0.5 3.125e-05 9.23045 3.125e-05 20V20C3.125e-05 30.7696 8.73048 39.5 19.5 39.5H20.5812C31.3507 39.5 40.0812 30.7696 40.0812 20V20Z" fill="white"/>
<path fill-rule="evenodd" clip-rule="evenodd" d="M20.5727 33.2713C16.1701 28.8816 8.68206 22.6502 9.07954 15.8718C9.72982 10.3611 14.6274 6.07812 20.5727 6.07812C26.5179 6.07812 31.4156 10.3611 32.0658 15.8718C32.3399 23.2731 25.5747 28.3943 20.5727 33.2713Z" fill="#283D6A"/>
<path d="M25.1014 17.2343C25.1014 19.5449 23.2283 21.4179 20.9178 21.4179C18.6073 21.4179 16.7343 19.5449 16.7343 17.2343C16.7343 14.9238 18.6073 13.0508 20.9178 13.0508C23.2283 13.0508 25.1014 14.9238 25.1014 17.2343Z" fill="white"/>
</svg>
