<svg width="41" height="40" viewBox="0 0 41 40" fill="none" xmlns="http://www.w3.org/2000/svg">
<path d="M20.2988 0C9.2498 0 0.298828 8.95226 0.298828 20C0.298828 31.0477 9.25109 40 20.2988 40C31.3479 40 40.2988 31.0477 40.2988 20C40.2988 8.95226 31.3466 0 20.2988 0ZM30.1221 13.7019L26.8395 29.1703C26.5969 30.2671 25.944 30.5329 25.033 30.0168L20.033 26.3316L17.6214 28.6542C17.3556 28.92 17.1298 29.1458 16.6137 29.1458L16.9685 24.0568L26.2343 15.6852C26.6382 15.3303 26.1453 15.129 25.6124 15.4839L14.1608 22.6929L9.22528 21.1523C8.15302 20.8142 8.12851 20.08 9.45109 19.5639L28.7337 12.1277C29.6292 11.8052 30.4111 12.3458 30.1208 13.7006L30.1221 13.7019Z" fill="white"/>
</svg>
