<svg width="42" height="40" viewBox="0 0 42 40" fill="none" xmlns="http://www.w3.org/2000/svg">
<path d="M41.1901 20C41.1901 8.9543 32.2358 0 21.1901 0H20.0812C9.03549 0 0.0811958 8.9543 0.0811958 20C0.0811958 31.0457 9.0355 40 20.0812 40H21.1901C32.2358 40 41.1901 31.0457 41.1901 20Z" fill="white"/>
<path fill-rule="evenodd" clip-rule="evenodd" d="M31.6603 10.9224C32.4675 10.9224 33.1844 11.2888 33.6355 11.8557L20.5349 22.2599L7.55101 12.0446C7.98513 11.3716 8.76812 10.9224 9.66191 10.9224H31.6603ZM7.19019 28.2421V13.8908L16.5065 21.2206L7.20939 28.5353C7.19672 28.4392 7.19019 28.3414 7.19019 28.2421ZM8.04222 30.0101C8.47601 30.3667 9.04234 30.5826 9.66191 30.5826H31.6603C32.1928 30.5826 32.686 30.4231 33.0895 30.1519L23.1898 22.2897L21.4096 23.7036C20.9061 24.1034 20.1727 24.105 19.6672 23.7074L17.8602 22.2856L8.04222 30.0101ZM24.5361 21.2206L34.0644 28.7878C34.1086 28.6127 34.132 28.43 34.132 28.2421V13.5997L24.5361 21.2206Z" fill="#283D6A"/>
</svg>
