<svg width="42" height="40" viewBox="0 0 42 40" fill="none" xmlns="http://www.w3.org/2000/svg">
<path d="M41.299 20C41.299 8.9543 32.3446 0 21.2989 0H20.1901C9.14438 0 0.190083 8.9543 0.190083 20C0.190083 31.0457 9.14439 40 20.1901 40H21.299C32.3447 40 41.299 31.0457 41.299 20Z" fill="white"/>
<path d="M12.3034 16.3944C14.6043 22.6714 16.9864 25.1758 23.0463 27.8434L20.4201 31.5317C13.4614 28.2001 9.99539 22.5842 8.36301 18.2017L12.3034 16.3944Z" fill="#283D6A"/>
<path d="M14.2335 7.72888C15.4639 7.72407 16.3994 8.74786 16.3155 9.90714C16.1835 11.7315 16.3241 13.0477 16.7024 14.6792C16.9103 15.5754 16.4401 16.4856 15.6929 17.0718C14.6857 17.862 13.9163 18.8689 13.3048 19.7357C12.4572 20.937 9.54026 20.8507 8.89519 19.5419C7.56945 16.8522 6.67101 11.8968 8.60696 8.54886C8.91105 8.02298 9.52334 7.7473 10.1578 7.74482L14.2335 7.72888Z" fill="#283D6A"/>
<path d="M32.9104 27.6329C33.0634 26.4799 32.0998 25.4797 30.8711 25.4189C28.9375 25.3233 27.5708 25.0332 25.9013 24.4823C24.9843 24.1797 23.9709 24.511 23.2648 25.1411C22.313 25.9903 21.1621 26.5906 20.1774 27.0597C18.8127 27.7099 18.5526 30.455 19.8508 31.2172C22.5187 32.7836 27.6197 34.2219 31.3718 32.8095C31.9612 32.5876 32.3246 32.0467 32.4035 31.4522L32.9104 27.6329Z" fill="#283D6A"/>
</svg>
