<svg width="41" height="40" viewBox="0 0 41 40" fill="none" xmlns="http://www.w3.org/2000/svg">
<rect x="0.298828" width="40" height="40" rx="20" fill="white"/>
<path d="M20.7988 8C17.678 8 17.2856 8.01438 16.0594 8.069C14.8332 8.1265 13.998 8.31912 13.2663 8.60375C12.4988 8.89243 11.8037 9.34525 11.2294 9.93056C10.6444 10.5051 10.1917 11.2002 9.90258 11.9675C9.61795 12.6978 9.42389 13.5344 9.36783 14.7562C9.3132 15.9853 9.29883 16.3763 9.29883 19.5014C9.29883 22.6237 9.3132 23.0147 9.36783 24.2409C9.42533 25.4656 9.61795 26.3008 9.90258 27.0325C10.1973 27.7886 10.5897 28.4297 11.2294 29.0694C11.8676 29.7091 12.5088 30.103 13.2649 30.3962C13.998 30.6809 14.8318 30.8749 16.0565 30.931C17.2841 30.9856 17.6751 31 20.7988 31C23.9225 31 24.3121 30.9856 25.5397 30.931C26.763 30.8735 27.6011 30.6809 28.3328 30.3962C29.0998 30.1074 29.7944 29.6546 30.3683 29.0694C31.008 28.4297 31.4004 27.7886 31.6951 27.0325C31.9783 26.3008 32.1723 25.4656 32.2298 24.2409C32.2845 23.0147 32.2988 22.6237 32.2988 19.5C32.2988 16.3763 32.2845 15.9853 32.2298 14.7577C32.1723 13.5344 31.9783 12.6978 31.6951 11.9675C31.406 11.2002 30.9533 10.5051 30.3683 9.93056C29.7942 9.34503 29.0989 8.89218 28.3313 8.60375C27.5982 8.31912 26.7616 8.12506 25.5383 8.069C24.3106 8.01438 23.9211 8 20.796 8H20.8003H20.7988ZM19.7681 10.0729H20.8003C23.8708 10.0729 24.2345 10.0829 25.4463 10.139C26.5675 10.1893 27.177 10.3776 27.5824 10.5343C28.1186 10.7427 28.5024 10.9929 28.9049 11.3954C29.3074 11.7979 29.5561 12.1803 29.7645 12.7179C29.9226 13.1218 30.1095 13.7313 30.1598 14.8526C30.2159 16.0644 30.2274 16.4281 30.2274 19.4971C30.2274 22.5662 30.2159 22.9313 30.1598 24.1431C30.1095 25.2644 29.9212 25.8724 29.7645 26.2778C29.5801 26.7771 29.2859 27.2286 28.9035 27.5989C28.501 28.0014 28.1186 28.2501 27.581 28.4585C27.1785 28.6166 26.569 28.8035 25.4463 28.8553C24.2345 28.9099 23.8708 28.9228 20.8003 28.9228C17.7298 28.9228 17.3646 28.9099 16.1528 28.8553C15.0316 28.8035 14.4235 28.6166 14.0181 28.4585C13.5186 28.2744 13.0667 27.9806 12.6956 27.5989C12.3129 27.228 12.0182 26.7761 11.8331 26.2764C11.6765 25.8724 11.4881 25.2629 11.4378 24.1417C11.3832 22.9299 11.3717 22.5662 11.3717 19.4942C11.3717 16.4237 11.3832 16.0615 11.4378 14.8497C11.4896 13.7284 11.6765 13.1189 11.8346 12.7136C12.043 12.1774 12.2931 11.7936 12.6956 11.3911C13.0981 10.9886 13.4805 10.7399 14.0181 10.5314C14.4235 10.3733 15.0316 10.1864 16.1528 10.1347C17.2137 10.0858 17.6248 10.0714 19.7681 10.07V10.0729ZM26.9384 11.9819C26.7572 11.9819 26.5777 12.0176 26.4103 12.0869C26.2429 12.1563 26.0907 12.2579 25.9626 12.3861C25.8344 12.5142 25.7328 12.6663 25.6634 12.8338C25.5941 13.0012 25.5584 13.1807 25.5584 13.3619C25.5584 13.5431 25.5941 13.7225 25.6634 13.89C25.7328 14.0574 25.8344 14.2095 25.9626 14.3377C26.0907 14.4658 26.2429 14.5675 26.4103 14.6368C26.5777 14.7062 26.7572 14.7419 26.9384 14.7419C27.3044 14.7419 27.6554 14.5965 27.9142 14.3377C28.173 14.0789 28.3184 13.7279 28.3184 13.3619C28.3184 12.9959 28.173 12.6449 27.9142 12.3861C27.6554 12.1273 27.3044 11.9819 26.9384 11.9819ZM20.8003 13.5947C20.0169 13.5825 19.239 13.7263 18.5117 14.0176C17.7845 14.3089 17.1224 14.742 16.5642 15.2916C16.0059 15.8412 15.5625 16.4964 15.2599 17.2191C14.9573 17.9417 14.8014 18.7173 14.8014 19.5007C14.8014 20.2842 14.9573 21.0598 15.2599 21.7824C15.5625 22.505 16.0059 23.1602 16.5642 23.7098C17.1224 24.2595 17.7845 24.6925 18.5117 24.9839C19.239 25.2752 20.0169 25.4189 20.8003 25.4067C22.3507 25.3825 23.8294 24.7496 24.9172 23.6447C26.0051 22.5397 26.6148 21.0513 26.6148 19.5007C26.6148 17.9501 26.0051 16.4617 24.9172 15.3568C23.8294 14.2518 22.3507 13.6189 20.8003 13.5947ZM20.8003 15.6662C21.8171 15.6662 22.7922 16.0701 23.5112 16.7891C24.2302 17.5081 24.6341 18.4832 24.6341 19.5C24.6341 20.5168 24.2302 21.4919 23.5112 22.2109C22.7922 22.9299 21.8171 23.3338 20.8003 23.3338C19.7835 23.3338 18.8083 22.9299 18.0894 22.2109C17.3704 21.4919 16.9665 20.5168 16.9665 19.5C16.9665 18.4832 17.3704 17.5081 18.0894 16.7891C18.8083 16.0701 19.7835 15.6662 20.8003 15.6662Z" fill="#283D6A"/>
</svg>
